<svg width="20" height="20" viewBox="0 0 20 20" fill="none" xmlns="http://www.w3.org/2000/svg">
<path d="M19.4494 16.7994L12.65 10L19.4494 3.20057C20.1835 2.46648 20.1835 1.28465 19.4494 0.550566C18.7153 -0.183522 17.5335 -0.183522 16.7994 0.550566L10 7.34999L3.20057 0.550566C2.46648 -0.183522 1.28465 -0.183522 0.550566 0.550566C-0.183522 1.28465 -0.183522 2.46648 0.550566 3.20057L7.34999 10L0.550566 16.7994C-0.183522 17.5335 -0.183522 18.7153 0.550566 19.4494C1.28465 20.1835 2.46648 20.1835 3.20057 19.4494L10 12.65L16.7994 19.4494C17.5335 20.1835 18.7153 20.1835 19.4494 19.4494C20.1783 18.7153 20.1783 17.5283 19.4494 16.7994Z" fill="white"/>
</svg>
